<svg width="27" height="21" viewBox="0 0 27 21" fill="none" xmlns="http://www.w3.org/2000/svg">
<path d="M1.22727 0C1.90507 0 2.45455 0.549475 2.45455 1.22727V19.2273C2.45455 19.9051 1.90507 20.4545 1.22727 20.4545C0.549475 20.4545 0 19.9051 0 19.2273V1.22727C0 0.549475 0.549475 0 1.22727 0ZM20.095 2.81401L26.6927 9.415C26.7752 9.50811 26.8409 9.61074 26.8902 9.71907C26.9607 9.87392 27 10.046 27 10.2273C27 10.4109 26.9596 10.5851 26.8874 10.7416C26.8395 10.8455 26.7763 10.944 26.6978 11.0338L26.6344 11.1011L20.095 17.6405C19.6157 18.1198 18.8388 18.1198 18.3595 17.6405C17.8802 17.1612 17.8802 16.3843 18.3595 15.905L22.8098 11.4545H6.13636C5.45857 11.4545 4.90909 10.9051 4.90909 10.2273C4.90909 9.54947 5.45857 9 6.13636 9H22.8098L18.3595 4.54963C17.8802 4.07036 17.8802 3.29328 18.3595 2.81401C18.8388 2.33473 19.6157 2.33473 20.095 2.81401Z" fill="#212121"/>
</svg>
