<svg width="27" height="27" viewBox="0 0 27 27" fill="none" xmlns="http://www.w3.org/2000/svg">
<path d="M8.95508 11.2368C8.95508 10.6333 9.44432 10.144 10.0478 10.144H16.6043C17.2078 10.144 17.6971 10.6333 17.6971 11.2368C17.6971 11.8403 17.2078 12.3295 16.6043 12.3295H10.0478C9.44432 12.3295 8.95508 11.8403 8.95508 11.2368Z" fill="#212121"/>
<path d="M10.0478 14.515C9.44432 14.515 8.95508 15.0043 8.95508 15.6078C8.95508 16.2113 9.44432 16.7005 10.0478 16.7005H14.4188C15.0223 16.7005 15.5116 16.2113 15.5116 15.6078C15.5116 15.0043 15.0223 14.515 14.4188 14.515H10.0478Z" fill="#212121"/>
<path d="M0.213096 13.4223C0.213096 6.1802 6.08399 0.309326 13.3261 0.309326C20.5681 0.309326 26.439 6.1802 26.439 13.4223C26.439 20.6644 20.5681 26.5353 13.3261 26.5353C10.936 26.5353 8.69255 25.8949 6.76121 24.7759L1.65141 26.4791C1.26685 26.6074 0.842933 26.5121 0.550121 26.2319C0.25733 25.9515 0.143793 25.5321 0.255144 25.1422L1.81036 19.699C0.791793 17.8339 0.213096 15.6943 0.213096 13.4223ZM13.3261 2.49482C7.29099 2.49482 2.39859 7.38722 2.39859 13.4223C2.39859 15.4615 2.95615 17.3672 3.92651 18.999C4.08035 19.2576 4.12067 19.5683 4.03799 19.8577L2.92569 23.7507L6.54965 22.5428C6.86133 22.4388 7.20322 22.4807 7.48063 22.6567C9.17041 23.7289 11.174 24.3498 13.3261 24.3498C19.3611 24.3498 24.2535 19.4573 24.2535 13.4223C24.2535 7.38722 19.3611 2.49482 13.3261 2.49482Z" fill="#212121"/>
</svg>
