<svg width="25" height="25" viewBox="0 0 25 27" fill="none" xmlns="http://www.w3.org/2000/svg">
<path d="M11.0246 0.567213C11.8245 -0.189071 13.0758 -0.189071 13.8757 0.567213L23.9261 10.0694C24.5479 10.6574 24.9003 11.4754 24.9003 12.3312V23.8875C24.9003 25.6064 23.5067 27 21.7877 27H17.6377C15.9187 27 14.5252 25.6064 14.5252 23.8875V18.6999C14.5252 18.127 14.0606 17.6625 13.4877 17.6625H11.4126C10.8396 17.6625 10.3751 18.127 10.3751 18.6999V23.8875C10.3751 25.6064 8.98159 27 7.26258 27H3.11253C1.39352 27 0 25.6064 0 23.8875V12.3312C0 11.4754 0.352339 10.6574 0.974182 10.0694L11.0246 0.567213ZM12.4501 2.07503L2.39974 11.5773C2.19247 11.7732 2.07502 12.0459 2.07502 12.3312V23.8875C2.07502 24.4604 2.53954 24.925 3.11253 24.925H7.26258C7.83558 24.925 8.30009 24.4604 8.30009 23.8875V18.6999C8.30009 16.981 9.69362 15.5874 11.4126 15.5874H13.4877C15.2067 15.5874 16.6002 16.981 16.6002 18.6999V23.8875C16.6002 24.4604 17.0648 24.925 17.6377 24.925H21.7877C22.3607 24.925 22.8253 24.4604 22.8253 23.8875V12.3312C22.8253 12.0459 22.7078 11.7732 22.5005 11.5773L12.4501 2.07503Z" fill="#212121"/>
</svg>
