<svg width="24" height="27" viewBox="0 0 24 27" fill="none" xmlns="http://www.w3.org/2000/svg">
<path d="M12.0502 1.96835C12.4483 0.977101 13.5634 -0.0876904 14.9918 0.309313C16.1153 0.621549 16.8451 1.30083 17.2621 2.20577C17.6509 3.04924 17.7465 4.04208 17.7646 4.98824C17.7842 6.00599 17.5716 7.22701 17.3215 8.29488C17.2048 8.79266 17.0764 9.27247 16.951 9.70379H19.5867C22.1272 9.70379 23.9547 12.145 23.2389 14.5825L20.6426 23.4249C19.8923 25.9796 17.1917 27.4216 14.6515 26.6236L4.45833 23.4219C3.34116 23.0709 2.44768 22.2253 2.03583 21.1293L1.04618 18.4953C0.396013 16.7649 1.0831 14.8175 2.67522 13.8782L6.23777 11.7764C6.24487 11.7715 6.25514 11.7641 6.2685 11.7543C6.30765 11.7254 6.37318 11.6751 6.46131 11.6004C6.63751 11.451 6.90462 11.2035 7.23237 10.8338C7.88718 10.0952 8.78902 8.86344 9.69158 6.94273C10.0815 6.11298 10.4095 5.46071 10.7074 4.86832C11.1889 3.9108 11.5918 3.10971 12.0502 1.96835ZM7.26276 13.3805C7.25195 13.3875 7.24105 13.3942 7.22999 13.4008L3.64229 15.5174C2.84622 15.987 2.50268 16.9607 2.82776 17.826L3.8174 20.46C4.02332 21.0079 4.47007 21.4308 5.02866 21.6062L15.2219 24.808C16.746 25.2866 18.3664 24.4214 18.8165 22.8886L21.4128 14.0463C21.7708 12.8276 20.8569 11.607 19.5867 11.607H15.649C15.3399 11.607 15.0501 11.4569 14.8718 11.2045C14.6934 10.9521 14.6488 10.6288 14.752 10.3375C14.9423 9.80064 15.2319 8.87054 15.4685 7.86077C15.7084 6.83655 15.8768 5.80092 15.8618 5.02484C15.8446 4.13356 15.7502 3.47192 15.5338 3.00245C15.3457 2.5944 15.0551 2.30221 14.4822 2.14299C14.4002 2.12019 14.3046 2.12685 14.1791 2.20924C14.0419 2.29924 13.9017 2.46482 13.8163 2.67759C13.3334 3.87991 12.8715 4.80076 12.3603 5.81999C12.0657 6.40718 11.7548 7.02702 11.4141 7.75214C10.436 9.83347 9.43469 11.2186 8.65646 12.0964C8.2677 12.5348 7.93584 12.8454 7.69216 13.052C7.57037 13.1553 7.47076 13.2324 7.39726 13.2866C7.36051 13.3137 7.33029 13.335 7.30711 13.3509L7.27768 13.3708L7.26704 13.3777L7.26276 13.3805Z" fill="#A3A3A3"/>
</svg>
