<svg width="23" height="26" viewBox="0 0 23 26" fill="none" xmlns="http://www.w3.org/2000/svg">
<path d="M11.0917 1.70364C11.4843 0.735455 12.584 -0.304555 13.9926 0.0832091C15.1005 0.388178 15.8202 1.05165 16.2314 1.93553C16.6149 2.75937 16.7091 3.7291 16.7269 4.65324C16.7462 5.6473 16.5366 6.83991 16.29 7.88293C16.1749 8.36912 16.0483 8.83776 15.9246 9.25904H18.5237C21.0291 9.25904 22.8312 11.6434 22.1253 14.0242L19.565 22.6608C18.8252 25.156 16.162 26.5645 13.657 25.7851L3.60515 22.6579C2.50348 22.3151 1.62238 21.4892 1.21624 20.4186L0.240308 17.8459C-0.400842 16.1558 0.276718 14.2537 1.84677 13.3363L5.35992 11.2834C5.36692 11.2786 5.37705 11.2714 5.39023 11.2618C5.42884 11.2336 5.49345 11.1845 5.58037 11.1115C5.75412 10.9656 6.01753 10.7238 6.34073 10.3627C6.98646 9.64136 7.8758 8.43825 8.76585 6.56225C9.15033 5.75181 9.47381 5.11471 9.76759 4.53612C10.2425 3.60087 10.6398 2.81843 11.0917 1.70364ZM6.3707 12.8502C6.36004 12.857 6.34929 12.8636 6.33839 12.87L2.80042 14.9373C2.0154 15.396 1.67662 16.3471 1.99719 17.1922L2.97311 19.7649C3.17618 20.3 3.61673 20.7131 4.16757 20.8845L14.2195 24.0117C15.7224 24.4792 17.3203 23.6341 17.7642 22.137L20.3245 13.5005C20.6776 12.3101 19.7763 11.1179 18.5237 11.1179H14.6406C14.3359 11.1179 14.0501 10.9713 13.8742 10.7248C13.6984 10.4783 13.6543 10.1625 13.7561 9.878C13.9438 9.35364 14.2293 8.44519 14.4626 7.45892C14.6993 6.45854 14.8653 5.44701 14.8505 4.68899C14.8336 3.81846 14.7405 3.17221 14.5271 2.71366C14.3416 2.31512 14.055 2.02972 13.4901 1.87421C13.4091 1.85194 13.3149 1.85845 13.1911 1.93892C13.0559 2.02682 12.9176 2.18855 12.8333 2.39637C12.3572 3.5707 11.9017 4.47013 11.3975 5.46563C11.1071 6.03916 10.8005 6.64458 10.4644 7.35281C9.49998 9.38571 8.51252 10.7386 7.74508 11.5959C7.36171 12.0242 7.03445 12.3275 6.79415 12.5293C6.67405 12.6302 6.57582 12.7056 6.50334 12.7585C6.4671 12.7849 6.43729 12.8057 6.41443 12.8213L6.38542 12.8407L6.37493 12.8475L6.3707 12.8502Z" fill="#212121"/>
</svg>
