<svg width="27" height="27" viewBox="0 0 27 27" fill="none" xmlns="http://www.w3.org/2000/svg">
<path d="M19.4062 11.8125C23.6002 11.8125 27 15.2123 27 19.4062C27 23.6002 23.6002 27 19.4062 27C15.2123 27 11.8125 23.6002 11.8125 19.4062C11.8125 15.2123 15.2123 11.8125 19.4062 11.8125ZM19.4062 0C21.643 0 23.4732 1.74072 23.616 3.94137L23.625 4.21875V11.137C23.2241 10.9321 22.8062 10.7554 22.3742 10.6097L21.9375 10.4744V4.21875C21.9375 2.90301 20.9336 1.82174 19.65 1.69909L19.4062 1.6875H4.21875C2.90301 1.6875 1.82174 2.69137 1.69909 3.97497L1.6875 4.21875V19.4062C1.6875 20.7219 2.69137 21.8033 3.97497 21.9259L4.21875 21.9375H10.4744C10.5992 22.3787 10.7558 22.8066 10.9416 23.2185L11.137 23.625H4.21875C1.982 23.625 0.15181 21.8843 0.0089736 19.6836L0 19.4062V4.21875C0 1.982 1.74072 0.15181 3.94137 0.0089736L4.21875 0H19.4062ZM19.4062 15.1875C18.9921 15.1875 18.6475 15.486 18.5761 15.8796L18.5625 16.0312V18.5625H16.0312C15.5653 18.5625 15.1875 18.9403 15.1875 19.4062C15.1875 19.8204 15.486 20.165 15.8796 20.2364L16.0312 20.25H18.5625V22.7812C18.5625 23.2472 18.9403 23.625 19.4062 23.625C19.8204 23.625 20.165 23.3265 20.2364 22.9329L20.25 22.7812V20.25H22.7812C23.2472 20.25 23.625 19.8722 23.625 19.4062C23.625 18.9921 23.3265 18.6475 22.9329 18.5761L22.7812 18.5625H20.25V16.0312C20.25 15.5653 19.8722 15.1875 19.4062 15.1875Z" fill="#212121"/>
</svg>
