<svg width="30" height="27" viewBox="0 0 30 27" fill="none" xmlns="http://www.w3.org/2000/svg">
<path d="M16.0126 14.63C18.0172 14.63 19.6422 16.2551 19.6422 18.2597L19.6403 20.0705C19.8893 24.5146 16.4664 26.7309 10.119 26.7309C3.79203 26.7309 0.294189 24.5436 0.294189 20.134V18.2597C0.294189 16.2551 1.91925 14.63 3.92386 14.63H16.0126ZM25.6931 14.63C27.6977 14.63 29.3228 16.2551 29.3228 18.2597L29.321 19.5339C29.5398 23.5204 26.5153 25.519 20.9872 25.519C20.2367 25.519 19.5313 25.4824 18.8724 25.4093C19.5758 24.7623 20.0997 23.99 20.4335 23.0929L20.9872 23.0992C25.3046 23.0992 27.0306 21.9586 26.903 19.6002V18.2597C26.903 17.5915 26.3613 17.0498 25.6931 17.0498L20.6996 17.0497C20.4547 16.098 19.9275 15.2596 19.2126 14.629L25.6931 14.63ZM16.0126 17.0498H3.92386C3.25565 17.0498 2.71397 17.5915 2.71397 18.2597V20.134C2.71397 22.907 4.95938 24.3111 10.119 24.3111C15.258 24.3111 17.3774 22.9388 17.2224 20.1382V18.2597C17.2224 17.5915 16.6808 17.0498 16.0126 17.0498ZM9.9733 0.111328C13.3149 0.111328 16.0237 2.8202 16.0237 6.16175C16.0237 9.50331 13.3149 12.2122 9.9733 12.2122C6.63175 12.2122 3.92288 9.50331 3.92288 6.16175C3.92288 2.8202 6.63175 0.111328 9.9733 0.111328ZM22.0722 2.53111C24.745 2.53111 26.9118 4.69785 26.9118 7.37066C26.9118 10.0435 24.745 12.2102 22.0722 12.2102C19.3994 12.2102 17.2326 10.0435 17.2326 7.37066C17.2326 4.69785 19.3994 2.53111 22.0722 2.53111ZM9.9733 2.53111C7.96815 2.53111 6.34266 4.1566 6.34266 6.16175C6.34266 8.16691 7.96815 9.7924 9.9733 9.7924C11.9785 9.7924 13.604 8.16691 13.604 6.16175C13.604 4.1566 11.9785 2.53111 9.9733 2.53111ZM22.0722 4.95089C20.7358 4.95089 19.6524 6.03426 19.6524 7.37066C19.6524 8.70707 20.7358 9.79044 22.0722 9.79044C23.4086 9.79044 24.492 8.70707 24.492 7.37066C24.492 6.03426 23.4086 4.95089 22.0722 4.95089Z" fill="#A3A3A3"/>
</svg>
