<svg width="22" height="27" viewBox="0 0 22 27" fill="none" xmlns="http://www.w3.org/2000/svg">
<path d="M17.55 13.5C19.7868 13.5 21.6 15.3132 21.6 17.55C21.6 20.5634 20.3608 22.9777 18.3272 24.61C16.3258 26.2165 13.6433 27 10.8 27C7.95669 27 5.27423 26.2165 3.27281 24.61C1.23922 22.9777 0 20.5634 0 17.55C0 15.4449 1.60617 13.7148 3.65991 13.5185L4.04995 13.5H17.55ZM17.55 16.2H4.04995C3.30445 16.2 2.7 16.8044 2.7 17.55C2.7 19.7557 3.57623 21.3914 4.96287 22.5044C6.38167 23.6432 8.42422 24.3 10.8 24.3C13.1758 24.3 15.2183 23.6432 16.6371 22.5044C18.0238 21.3914 18.9 19.7557 18.9 17.55C18.9 16.8873 18.4224 16.3361 17.7927 16.2218L17.55 16.2ZM10.8 0C13.7823 0 16.2 2.41766 16.2 5.4C16.2 8.38234 13.7823 10.8 10.8 10.8C7.81766 10.8 5.4 8.38234 5.4 5.4C5.4 2.41766 7.81766 0 10.8 0ZM10.8 2.7C9.30884 2.7 8.1 3.90884 8.1 5.4C8.1 6.89116 9.30884 8.1 10.8 8.1C12.2912 8.1 13.5 6.89116 13.5 5.4C13.5 3.90884 12.2912 2.7 10.8 2.7Z" fill="#212121"/>
</svg>
