<svg width="20" height="20" viewBox="0 0 20 20" fill="none" xmlns="http://www.w3.org/2000/svg">
<path d="M7.85714 0C12.1965 0 15.7143 3.51776 15.7143 7.85714C15.7143 9.7697 15.0309 11.5227 13.8951 12.8852L19.7908 18.7806C20.0697 19.0596 20.0697 19.5118 19.7908 19.7908C19.5428 20.0387 19.1579 20.0663 18.8796 19.8734L18.7806 19.7908L12.8852 13.8951C11.5227 15.0309 9.7697 15.7143 7.85714 15.7143C3.51776 15.7143 0 12.1965 0 7.85714C0 3.51776 3.51776 0 7.85714 0ZM7.85714 1.42857C4.30674 1.42857 1.42857 4.30674 1.42857 7.85714C1.42857 11.4075 4.30674 14.2857 7.85714 14.2857C11.4075 14.2857 14.2857 11.4075 14.2857 7.85714C14.2857 4.30674 11.4075 1.42857 7.85714 1.42857Z" fill="#A2A2A2"/>
</svg>
