<svg width="21" height="21" viewBox="0 0 21 21" fill="none" xmlns="http://www.w3.org/2000/svg">
<path d="M0.950345 0.261768L20.4745 9.88239C20.7895 10.0376 20.919 10.4187 20.7638 10.7337C20.7019 10.8594 20.6002 10.9611 20.4745 11.023L0.950746 20.6434C0.635776 20.7986 0.254625 20.6691 0.0994221 20.3541C0.0315563 20.2164 0.0158243 20.0588 0.0551322 19.9104L2.55845 10.458L0.0546914 0.99469C-0.03512 0.655237 0.167254 0.30725 0.506707 0.217438C0.655089 0.17818 0.812665 0.193925 0.950345 0.261768ZM1.64122 2.01975L3.68732 9.75353L3.76613 9.73826L3.84808 9.73303H12.749C13.1002 9.73303 13.3848 10.0177 13.3848 10.3688C13.3848 10.6809 13.1599 10.9405 12.8633 10.9943L12.749 11.0046H3.84808C3.80815 11.0046 3.76908 11.0009 3.73118 10.9939L1.64202 18.8852L18.7551 10.4527L1.64122 2.01975Z" fill="#212121"/>
</svg>
